<svg xmlns="http://www.w3.org/2000/svg" viewBox="0 0 406 38.85" style="enable-background:new 0 0 406 38.85" xml:space="preserve"><path d="M8.46 12.35c-.96 1.13-1.44 2.66-1.44 4.55 0 1.95.48 3.47 1.44 4.61.94 1.13 2.21 1.71 3.82 1.71 1.03 0 1.94-.25 2.73-.73.79-.5 1.41-1.23 1.85-2.16h7.44c-.6 2.85-1.97 5.1-4.09 6.76-2.11 1.67-4.73 2.48-7.83 2.48-2.44 0-4.6-.53-6.49-1.6a11.214 11.214 0 0 1-4.37-4.48C.51 21.58 0 19.37 0 16.9c0-2.44.51-4.61 1.52-6.54a11.15 11.15 0 0 1 4.37-4.48c1.88-1.06 4.05-1.61 6.49-1.61 3.1 0 5.72.84 7.83 2.48 2.12 1.67 3.49 3.91 4.09 6.77h-7.44c-.44-.94-1.06-1.66-1.85-2.14-.79-.5-1.7-.75-2.73-.75-1.61 0-2.89.56-3.82 1.72zm41.63 8.47L45.93 9.61H39.4v-.18c-1.28 0-2.46.33-3.57.99a8.98 8.98 0 0 0-2.82 2.68V9.61h-6.9v19.78h6.9v-8.64c0-1.45.37-2.48 1.1-3.07.72-.59 1.84-.89 3.36-.89h1.94v-4.44l6.94 16.19-4.72 10.27h7.51l12.55-29.2H54.1l-4.01 11.21zm31.94-6.7c.73 1.53 1.12 3.32 1.12 5.37 0 2.05-.39 3.84-1.12 5.39-.73 1.52-1.75 2.72-3.03 3.54a7.842 7.842 0 0 1-4.29 1.24c-1.34 0-2.49-.29-3.46-.81a6.376 6.376 0 0 1-2.33-2.19v12.2h-6.91V9.61h6.91v2.75c.55-.93 1.31-1.65 2.3-2.18 1-.55 2.15-.81 3.49-.81 1.58 0 3.01.41 4.29 1.24 1.28.81 2.3 1.99 3.03 3.51zm-5.91 5.37c0-1.29-.35-2.31-1.04-3.03-.69-.7-1.54-1.07-2.55-1.07-1.02 0-1.87.37-2.56 1.1-.69.72-1.04 1.72-1.04 3 0 1.3.35 2.3 1.04 3.03.69.74 1.54 1.09 2.56 1.09 1.01 0 1.86-.37 2.55-1.1.69-.76 1.04-1.76 1.04-3.02zm16.81 3.66c-.25-.24-.38-.62-.38-1.16v-6.63h3.6V9.61h-3.6v-4.8h-6.94v4.8h-2.44v5.75h2.44v6.53c0 5.02 2.51 7.51 7.59 7.51h3v-5.9h-2.02c-.59 0-1.01-.11-1.25-.35zm23.22-9.03c.9 1.53 1.35 3.32 1.35 5.37 0 2.05-.45 3.84-1.35 5.39-.92 1.52-2.15 2.72-3.72 3.54-.3.15-.6.29-.91.41v4.43h-3.09v-3.68c-.06.01-.12.01-.19.02-.37.03-.76.05-1.16.05h-.19c-.35-.01-.69-.03-1.03-.06v3.67h-3.09v-4.39c-.35-.12-.68-.28-1-.45-1.55-.82-2.79-2-3.69-3.53-.9-1.52-1.34-3.34-1.34-5.4 0-2.05.45-3.83 1.35-5.37.92-1.52 2.15-2.7 3.71-3.52.31-.16.64-.31.97-.43V6.48h3.09v2.96c.34-.04.68-.06 1.03-.07h.24c.38 0 .74.02 1.11.04.06.01.12.01.19.02V6.48h3.09v3.71c.31.11.62.26.92.41 1.55.82 2.79 2 3.71 3.52zm-7.72 9.24c.19-.07.35-.18.51-.29.21-.13.39-.3.57-.49.07-.08.14-.18.21-.27.09-.12.18-.27.26-.41.34-.64.5-1.44.5-2.41s-.16-1.76-.5-2.39c-.07-.14-.16-.29-.26-.41-.06-.09-.13-.18-.21-.27-.19-.2-.37-.36-.57-.5-.16-.1-.33-.21-.51-.28-.06-.03-.12-.06-.19-.08-.35-.13-.72-.2-1.11-.2-.07 0-.16 0-.24.02-.37.02-.71.1-1.03.24-.15.06-.3.13-.44.23-.02.02-.05.03-.07.06-.21.14-.4.32-.59.51-.18.2-.32.41-.44.65-.34.64-.51 1.44-.51 2.42 0 1.02.18 1.86.51 2.51.11.22.25.42.4.6.2.23.41.39.63.55.02.02.05.03.07.05.14.09.29.16.44.23.32.13.66.21 1.03.22.06.01.13.01.19.01.43 0 .81-.07 1.16-.21.07-.03.13-.06.19-.09zm28.99-14.85c.71 1.26 1.06 2.69 1.06 4.3 0 1.5-.35 2.88-1.04 4.12-.7 1.24-1.74 2.22-3.13 2.96-1.41.75-3.12 1.11-5.15 1.11h-3.41v8.39h-6.92V4.53h10.33c2 0 3.71.35 5.1 1.05 1.4.71 2.46 1.68 3.16 2.93zm-5.99 4.3c0-1.8-.97-2.72-2.92-2.72h-2.75v5.4h2.75c1.95 0 2.92-.88 2.92-2.68zm21.67-3.38c-1.29 0-2.47.33-3.57.99-1.1.66-2.05 1.54-2.82 2.68V9.61h-6.91v19.78h6.91v-8.64c0-1.45.36-2.48 1.1-3.07.72-.59 1.83-.89 3.35-.89h1.95V9.43zm19.24 4.69c.9 1.53 1.35 3.32 1.35 5.37 0 2.05-.45 3.84-1.35 5.39-.92 1.52-2.15 2.72-3.72 3.54-1.6.82-3.36 1.24-5.33 1.24s-3.75-.41-5.31-1.24a9.15 9.15 0 0 1-3.69-3.53c-.9-1.52-1.34-3.34-1.34-5.4 0-2.05.45-3.83 1.36-5.37.91-1.52 2.14-2.7 3.7-3.52 1.58-.82 3.34-1.24 5.32-1.24 1.97 0 3.73.41 5.3 1.24 1.55.82 2.79 2 3.71 3.52zm-5.67 5.37c0-1.35-.32-2.36-.97-3.07-.65-.7-1.44-1.06-2.38-1.06-.95 0-1.74.36-2.37 1.06-.63.71-.96 1.72-.96 3.07 0 1.36.31 2.4.92 3.11.62.7 1.41 1.05 2.37 1.05.97 0 1.77-.36 2.42-1.07.65-.73.97-1.76.97-3.09zm16.54-11.53c.35-.33.91-.5 1.66-.5.32 0 .59.01.78.04V1.61c-.31-.03-.75-.05-1.31-.05-2.79 0-4.94.68-6.44 2.03-1.5 1.35-2.23 3.31-2.23 5.85v.18h-2.16v5.75h2.16v14.04h6.93V15.36h3.12V9.61h-3.12c.07-.76.26-1.31.61-1.65zm6.98-7.31c-1.23 0-2.2.34-2.95 1.03-.73.67-1.11 1.52-1.11 2.56 0 1.02.38 1.85 1.11 2.51.74.68 1.72 1.02 2.95 1.02 1.2 0 2.17-.34 2.9-1.02.75-.66 1.12-1.49 1.12-2.51 0-1.04-.37-1.89-1.12-2.56-.72-.69-1.69-1.03-2.9-1.03zm-3.49 28.74h6.91V9.61h-6.91v19.78zm17.81-6.24c-.25-.24-.38-.62-.38-1.16v-6.63h3.59V9.61h-3.59v-4.8h-6.94v4.8h-2.44v5.75h2.44v6.53c0 5.02 2.53 7.51 7.58 7.51h3.01v-5.9h-2.02c-.59 0-1.01-.11-1.25-.35z" style="fill:#3168bf"/><path d="M213.45 11.92c-.78 1.47-1.16 3.19-1.16 5.16 0 1.96.38 3.68 1.16 5.15.77 1.47 1.84 2.6 3.2 3.4 1.36.8 2.9 1.21 4.62 1.21 1.78 0 3.33-.4 4.6-1.19 1.28-.78 2.27-1.92 2.94-3.4h3.85c-.91 2.36-2.38 4.16-4.38 5.46-2 1.28-4.34 1.91-7.01 1.91-2.28 0-4.37-.53-6.23-1.6-1.86-1.07-3.34-2.56-4.43-4.46-1.08-1.91-1.62-4.06-1.62-6.47 0-2.39.54-4.55 1.62-6.47 1.09-1.91 2.56-3.41 4.43-4.49 1.86-1.09 3.95-1.62 6.23-1.62 2.68 0 5.02.64 7.01 1.94 2 1.3 3.47 3.12 4.38 5.5h-3.85c-.67-1.48-1.66-2.62-2.94-3.43-1.28-.79-2.82-1.18-4.6-1.18-1.72 0-3.26.39-4.62 1.18-1.36.8-2.43 1.93-3.2 3.4zm37.03-1.85h3.24v19.32h-3.24V25.8c-.63 1.13-1.59 2.07-2.83 2.8-1.27.74-2.72 1.12-4.4 1.12-1.72 0-3.27-.43-4.67-1.28-1.38-.84-2.48-2.03-3.27-3.56-.79-1.52-1.2-3.27-1.2-5.21 0-1.99.41-3.73 1.2-5.21.79-1.49 1.89-2.66 3.3-3.48 1.41-.82 2.96-1.24 4.68-1.24 1.7 0 3.17.37 4.41 1.1 1.25.72 2.17 1.65 2.79 2.75v-3.52zm0 9.62c0-1.45-.3-2.73-.89-3.8-.59-1.09-1.38-1.92-2.38-2.48-1-.6-2.1-.88-3.3-.88-1.2 0-2.29.28-3.29.84-.99.57-1.76 1.39-2.36 2.46-.59 1.09-.88 2.36-.88 3.83 0 1.46.29 2.76.88 3.84.6 1.1 1.37 1.95 2.36 2.51 1 .58 2.08.88 3.29.88 1.19 0 2.3-.3 3.3-.88 1-.57 1.79-1.41 2.38-2.51.59-1.07.89-2.35.89-3.81zm6.56 9.7h3.21V3.3h-3.21v26.09zm14.78-16.93c1.41 0 2.58.34 3.54 1.03.96.68 1.59 1.61 1.93 2.78h3.46c-.5-2.05-1.51-3.65-3.06-4.79-1.53-1.16-3.5-1.74-5.87-1.74-1.83 0-3.47.41-4.89 1.24-1.41.82-2.52 1.99-3.33 3.48-.8 1.48-1.2 3.23-1.2 5.23 0 2.03.4 3.8 1.2 5.29.8 1.5 1.92 2.68 3.33 3.5 1.42.82 3.06 1.24 4.89 1.24 2.33 0 4.26-.61 5.82-1.79 1.54-1.18 2.6-2.77 3.11-4.74h-3.46c-.35 1.23-1 2.16-1.94 2.82-.95.65-2.12.99-3.53.99-1.83 0-3.32-.64-4.45-1.92-1.12-1.27-1.69-3.07-1.69-5.4 0-2.31.57-4.08 1.69-5.34 1.13-1.24 2.62-1.88 4.45-1.88zm25.01 8.22c0 2.03-.48 3.57-1.47 4.63-1 1.05-2.35 1.59-4.06 1.59-1.67 0-3-.51-3.95-1.54-.97-1.02-1.45-2.48-1.45-4.4V10.07h-3.17v11.32c0 1.79.35 3.31 1.04 4.55a6.921 6.921 0 0 0 2.84 2.81c1.2.61 2.55.92 4.05.92 1.33 0 2.53-.28 3.63-.81 1.1-.57 1.95-1.33 2.55-2.32v2.85h3.21V10.07h-3.21v10.61zm6.52 8.71h3.21V3.3h-3.21v26.09zm21.73-19.32h3.25v19.32h-3.25V25.8c-.63 1.13-1.59 2.07-2.83 2.8-1.27.74-2.74 1.12-4.4 1.12-1.72 0-3.27-.43-4.65-1.28-1.38-.84-2.48-2.03-3.27-3.56-.81-1.52-1.22-3.27-1.22-5.21 0-1.99.4-3.73 1.22-5.21.79-1.49 1.89-2.66 3.29-3.48 1.4-.82 2.96-1.24 4.68-1.24 1.69 0 3.16.37 4.41 1.1 1.26.72 2.17 1.65 2.79 2.75v-3.52zm0 9.62c0-1.45-.29-2.73-.88-3.8-.59-1.09-1.38-1.92-2.38-2.48-1.01-.6-2.11-.88-3.32-.88-1.18 0-2.29.28-3.27.84-.98.57-1.78 1.39-2.37 2.46-.59 1.09-.88 2.36-.88 3.83 0 1.46.29 2.76.88 3.84.59 1.1 1.39 1.95 2.37 2.51.99.58 2.09.88 3.27.88 1.2 0 2.31-.3 3.32-.88 1-.57 1.79-1.41 2.38-2.51.6-1.07.88-2.35.88-3.81zM335.57 5.2h-3.22v4.87h-2.49v2.64h2.49v11.4c0 1.87.46 3.23 1.34 4.05.9.82 2.23 1.24 4.03 1.24h2.89v-2.72h-2.36c-.99 0-1.68-.19-2.09-.57-.39-.4-.59-1.06-.59-2v-11.4h5.04v-2.64h-5.04V5.2zm23.85 9.23c.87 1.51 1.3 3.26 1.3 5.26s-.44 3.77-1.33 5.28c-.88 1.51-2.07 2.69-3.58 3.51-1.49.82-3.17 1.24-5.01 1.24-1.81 0-3.44-.41-4.91-1.24-1.47-.82-2.64-2-3.47-3.51-.82-1.51-1.25-3.29-1.25-5.28 0-1.97.42-3.72 1.29-5.23.85-1.52 2.03-2.69 3.51-3.49 1.47-.81 3.13-1.23 4.97-1.23 1.83 0 3.49.41 4.96 1.23 1.49.8 2.66 1.97 3.52 3.46zm-1.98 5.26c0-1.56-.31-2.86-.93-3.95-.61-1.07-1.41-1.87-2.4-2.41-.99-.53-2.06-.79-3.2-.79-1.17 0-2.27.27-3.23.79-.97.54-1.76 1.34-2.35 2.41-.59 1.09-.89 2.4-.89 3.95 0 1.58.3 2.91.87 3.99.58 1.09 1.35 1.89 2.31 2.43.97.53 2.03.79 3.18.79s2.22-.28 3.24-.82c1.01-.54 1.83-1.36 2.45-2.43.62-1.09.95-2.39.95-3.96zm8.59-6.49v-3.13h-3.2v19.32h3.2v-10.5c0-3.91 1.81-5.87 5.4-5.87h.85V9.71c-1.5 0-2.78.31-3.82.92-1.06.62-1.85 1.47-2.43 2.57z" style="fill:#0197f6"/><path d="M395.71 14.7h-14.7V8.82h14.7v5.88zm-2.94 11.76h2.94v-8.82h-2.94v8.82zm-5.88-5.88h2.94v-2.94h-2.94v2.94zm0 5.88h2.94v-2.94h-2.94v2.94zm14.7-22.05v26.46c0 .81-.66 1.47-1.47 1.47H376.6c-.81 0-1.47-.66-1.47-1.47V4.41c0-.81.66-1.47 1.47-1.47h23.52c.81 0 1.47.66 1.47 1.47zm-2.94 1.47h-20.58V29.4h20.58V5.88zm-14.7 11.76h-2.94v2.94h2.94v-2.94zm0 5.88h-2.94v2.94h2.94v-2.94z" style="fill:#71ab42"/></svg>